<svg width="237" height="45" viewBox="0 0 237 45" fill="none" xmlns="http://www.w3.org/2000/svg">
<path d="M4.33203 3.72656V7.53516H8.57422C9.33203 7.53516 9.94531 7.39453 10.4141 7.11328C10.8906 6.82422 11.1289 6.31641 11.1289 5.58984C11.1289 4.78516 10.8164 4.25391 10.1914 3.99609C9.65234 3.81641 8.96484 3.72656 8.12891 3.72656H4.33203ZM4.33203 10.3945V15H8.57422C9.33203 15 9.92188 14.8984 10.3438 14.6953C11.1094 14.3203 11.4922 13.6016 11.4922 12.5391C11.4922 11.6406 11.1211 11.0234 10.3789 10.6875C9.96484 10.5 9.38281 10.4023 8.63281 10.3945H4.33203ZM9.27734 0.726562C11.3945 0.757813 12.8945 1.37109 13.7773 2.56641C14.3086 3.30078 14.5742 4.17969 14.5742 5.20312C14.5742 6.25781 14.3086 7.10547 13.7773 7.74609C13.4805 8.10547 13.043 8.43359 12.4648 8.73047C13.3477 9.05078 14.0117 9.55859 14.457 10.2539C14.9102 10.9492 15.1367 11.793 15.1367 12.7852C15.1367 13.8086 14.8789 14.7266 14.3633 15.5391C14.0352 16.0781 13.625 16.5312 13.1328 16.8984C12.5781 17.3203 11.9219 17.6094 11.1641 17.7656C10.4141 17.9219 9.59766 18 8.71484 18H0.886719V0.726562H9.27734ZM23.6328 15.6445C24.6094 15.6445 25.3594 15.2969 25.8828 14.6016C26.4062 13.9062 26.668 12.918 26.668 11.6367C26.668 10.3555 26.4062 9.37109 25.8828 8.68359C25.3594 7.98828 24.6094 7.64062 23.6328 7.64062C22.6562 7.64062 21.9023 7.98828 21.3711 8.68359C20.8477 9.37109 20.5859 10.3555 20.5859 11.6367C20.5859 12.918 20.8477 13.9062 21.3711 14.6016C21.9023 15.2969 22.6562 15.6445 23.6328 15.6445ZM30.1719 11.6367C30.1719 13.5117 29.6328 15.1172 28.5547 16.4531C27.4766 17.7812 25.8398 18.4453 23.6445 18.4453C21.4492 18.4453 19.8125 17.7812 18.7344 16.4531C17.6562 15.1172 17.1172 13.5117 17.1172 11.6367C17.1172 9.79297 17.6562 8.19531 18.7344 6.84375C19.8125 5.49219 21.4492 4.81641 23.6445 4.81641C25.8398 4.81641 27.4766 5.49219 28.5547 6.84375C29.6328 8.19531 30.1719 9.79297 30.1719 11.6367ZM39.6172 11.7891C39.4062 11.9219 39.1914 12.0312 38.9727 12.1172C38.7617 12.1953 38.4688 12.2695 38.0938 12.3398L37.3438 12.4805C36.6406 12.6055 36.1367 12.7578 35.832 12.9375C35.3164 13.2422 35.0586 13.7148 35.0586 14.3555C35.0586 14.9258 35.2148 15.3398 35.5273 15.5977C35.8477 15.8477 36.2344 15.9727 36.6875 15.9727C37.4062 15.9727 38.0664 15.7617 38.668 15.3398C39.2773 14.918 39.5938 14.1484 39.6172 13.0312V11.7891ZM37.5898 10.2305C38.207 10.1523 38.6484 10.0547 38.9141 9.9375C39.3906 9.73438 39.6289 9.41797 39.6289 8.98828C39.6289 8.46484 39.4453 8.10547 39.0781 7.91016C38.7188 7.70703 38.1875 7.60547 37.4844 7.60547C36.6953 7.60547 36.1367 7.80078 35.8086 8.19141C35.5742 8.48047 35.418 8.87109 35.3398 9.36328H32.1172C32.1875 8.24609 32.5 7.32812 33.0547 6.60938C33.9375 5.48438 35.4531 4.92188 37.6016 4.92188C39 4.92188 40.2422 5.19922 41.3281 5.75391C42.4141 6.30859 42.957 7.35547 42.957 8.89453V14.7539C42.957 15.1602 42.9648 15.6523 42.9805 16.2305C43.0039 16.668 43.0703 16.9648 43.1797 17.1211C43.2891 17.2773 43.4531 17.4062 43.6719 17.5078V18H40.0391C39.9375 17.7422 39.8672 17.5 39.8281 17.2734C39.7891 17.0469 39.7578 16.7891 39.7344 16.5C39.2734 17 38.7422 17.4258 38.1406 17.7773C37.4219 18.1914 36.6094 18.3984 35.7031 18.3984C34.5469 18.3984 33.5898 18.0703 32.832 17.4141C32.082 16.75 31.707 15.8125 31.707 14.6016C31.707 13.0312 32.3125 11.8945 33.5234 11.1914C34.1875 10.8086 35.1641 10.5352 36.4531 10.3711L37.5898 10.2305ZM52.8711 4.92188C52.9336 4.92188 52.9844 4.92578 53.0234 4.93359C53.0703 4.93359 53.168 4.9375 53.3164 4.94531V8.36719C53.1055 8.34375 52.918 8.32812 52.7539 8.32031C52.5898 8.3125 52.457 8.30859 52.3555 8.30859C51.0117 8.30859 50.1094 8.74609 49.6484 9.62109C49.3906 10.1133 49.2617 10.8711 49.2617 11.8945V18H45.8984V5.22656H49.0859V7.45312C49.6016 6.60156 50.0508 6.01953 50.4336 5.70703C51.0586 5.18359 51.8711 4.92188 52.8711 4.92188ZM59.9961 4.92188C60.7695 4.92188 61.457 5.09375 62.0586 5.4375C62.6602 5.77344 63.1484 6.24219 63.5234 6.84375V0.75H66.9102V18H63.6641V16.2305C63.1875 16.9883 62.6445 17.5391 62.0352 17.8828C61.4258 18.2266 60.668 18.3984 59.7617 18.3984C58.2695 18.3984 57.0117 17.7969 55.9883 16.5938C54.9727 15.3828 54.4648 13.832 54.4648 11.9414C54.4648 9.76172 54.9648 8.04688 55.9648 6.79688C56.9727 5.54687 58.3164 4.92188 59.9961 4.92188ZM60.7227 15.5859C61.668 15.5859 62.3867 15.2344 62.8789 14.5312C63.3711 13.8281 63.6172 12.918 63.6172 11.8008C63.6172 10.2383 63.2227 9.12109 62.4336 8.44922C61.9492 8.04297 61.3867 7.83984 60.7461 7.83984C59.7695 7.83984 59.0508 8.21094 58.5898 8.95312C58.1367 9.6875 57.9102 10.6016 57.9102 11.6953C57.9102 12.875 58.1406 13.8203 58.6016 14.5312C59.0703 15.2344 59.7773 15.5859 60.7227 15.5859ZM78.9181 18.24C77.5021 18.24 76.0381 17.16 76.0381 14.952C76.0381 12.936 76.7101 11.016 78.0541 9.552C79.0141 8.496 80.1661 8.016 81.4621 8.016C82.8541 8.016 84.4381 8.88 84.4381 11.04C84.4381 12.576 83.8141 15.072 82.3741 16.656C81.4621 17.712 80.3581 18.24 78.9181 18.24ZM78.5821 16.944C79.5181 16.944 80.3821 16.272 81.3181 14.712C82.2061 13.2 82.9501 11.208 82.9501 10.344C82.9501 9.816 82.6141 9.264 81.9181 9.264C80.9341 9.264 80.0221 10.104 78.8461 12.072C78.0541 13.416 77.5741 14.856 77.5741 15.816C77.5741 16.464 78.0541 16.944 78.5821 16.944ZM90.8499 8.544H93.2979C93.4419 8.544 93.4899 8.64 93.4419 8.784L93.3219 9.408C93.2979 9.552 93.2499 9.6 93.0579 9.6H90.6579C90.1299 11.472 89.0739 15.6 88.0659 18.384C86.7459 22.008 84.8259 25.128 82.0179 25.128C80.7699 25.128 80.0019 24.504 80.0019 23.64C80.0019 23.016 80.4339 22.488 81.1059 22.488C81.8739 22.488 82.2579 23.112 82.3059 23.736C82.3539 23.976 82.4979 24.12 82.7859 24.12C83.8899 24.12 85.0419 22.104 86.1939 17.712L88.3539 9.6H86.2899C86.1459 9.6 86.0979 9.504 86.1219 9.36L86.2419 8.784C86.2899 8.64 86.3379 8.544 86.5299 8.544H88.5459C89.2659 6.648 89.6499 5.016 91.2819 3.24C91.9059 2.52 93.3939 1.56 94.9299 1.56C96.7059 1.56 97.4739 2.424 97.4739 3.144C97.4739 3.816 96.9459 4.296 96.3699 4.296C95.4579 4.296 95.1699 3.816 95.0739 3.192C95.0259 2.952 94.8339 2.496 94.2099 2.496C92.3379 2.496 91.5699 5.976 90.8499 8.544ZM3.44141 38.668C3.55078 39.457 3.76562 40.0469 4.08594 40.4375C4.67188 41.1484 5.67578 41.5039 7.09766 41.5039C7.94922 41.5039 8.64062 41.4102 9.17188 41.2227C10.1797 40.8633 10.6836 40.1953 10.6836 39.2188C10.6836 38.6484 10.4336 38.207 9.93359 37.8945C9.43359 37.5898 8.64844 37.3203 7.57812 37.0859L5.75 36.6758C3.95312 36.2695 2.71094 35.8281 2.02344 35.3516C0.859375 34.5547 0.277344 33.3086 0.277344 31.6133C0.277344 30.0664 0.839844 28.7812 1.96484 27.7578C3.08984 26.7344 4.74219 26.2227 6.92188 26.2227C8.74219 26.2227 10.293 26.707 11.5742 27.6758C12.8633 28.6367 13.5391 30.0352 13.6016 31.8711H10.1328C10.0703 30.832 9.61719 30.0938 8.77344 29.6562C8.21094 29.3672 7.51172 29.2227 6.67578 29.2227C5.74609 29.2227 5.00391 29.4102 4.44922 29.7852C3.89453 30.1602 3.61719 30.6836 3.61719 31.3555C3.61719 31.9727 3.89062 32.4336 4.4375 32.7383C4.78906 32.9414 5.53906 33.1797 6.6875 33.4531L9.66406 34.168C10.9688 34.4805 11.9531 34.8984 12.6172 35.4219C13.6484 36.2344 14.1641 37.4102 14.1641 38.9492C14.1641 40.5273 13.5586 41.8398 12.3477 42.8867C11.1445 43.9258 9.44141 44.4453 7.23828 44.4453C4.98828 44.4453 3.21875 43.9336 1.92969 42.9102C0.640625 41.8789 -0.00390625 40.4648 -0.00390625 38.668H3.44141ZM15.2539 33.7227V31.3438H17.0352V27.7812H20.3398V31.3438H22.4141V33.7227H20.3398V40.4727C20.3398 40.9961 20.4062 41.3242 20.5391 41.457C20.6719 41.582 21.0781 41.6445 21.7578 41.6445C21.8594 41.6445 21.9648 41.6445 22.0742 41.6445C22.1914 41.6367 22.3047 41.6289 22.4141 41.6211V44.1172L20.832 44.1758C19.2539 44.2305 18.1758 43.957 17.5977 43.3555C17.2227 42.9727 17.0352 42.3828 17.0352 41.5859V33.7227H15.2539ZM27.8867 31.2266V38.9258C27.8867 39.6523 27.9727 40.1992 28.1445 40.5664C28.4492 41.2148 29.0469 41.5391 29.9375 41.5391C31.0781 41.5391 31.8594 41.0781 32.2812 40.1562C32.5 39.6562 32.6094 38.9961 32.6094 38.1758V31.2266H35.9961V44H32.75V42.1953C32.7188 42.2344 32.6406 42.3516 32.5156 42.5469C32.3906 42.7422 32.2422 42.9141 32.0703 43.0625C31.5469 43.5312 31.0391 43.8516 30.5469 44.0234C30.0625 44.1953 29.4922 44.2812 28.8359 44.2812C26.9453 44.2812 25.6719 43.6016 25.0156 42.2422C24.6484 41.4922 24.4648 40.3867 24.4648 38.9258V31.2266H27.8867ZM43.9414 30.9219C44.7148 30.9219 45.4023 31.0938 46.0039 31.4375C46.6055 31.7734 47.0938 32.2422 47.4688 32.8438V26.75H50.8555V44H47.6094V42.2305C47.1328 42.9883 46.5898 43.5391 45.9805 43.8828C45.3711 44.2266 44.6133 44.3984 43.707 44.3984C42.2148 44.3984 40.957 43.7969 39.9336 42.5938C38.918 41.3828 38.4102 39.832 38.4102 37.9414C38.4102 35.7617 38.9102 34.0469 39.9102 32.7969C40.918 31.5469 42.2617 30.9219 43.9414 30.9219ZM44.668 41.5859C45.6133 41.5859 46.332 41.2344 46.8242 40.5312C47.3164 39.8281 47.5625 38.918 47.5625 37.8008C47.5625 36.2383 47.168 35.1211 46.3789 34.4492C45.8945 34.043 45.332 33.8398 44.6914 33.8398C43.7148 33.8398 42.9961 34.2109 42.5352 34.9531C42.082 35.6875 41.8555 36.6016 41.8555 37.6953C41.8555 38.875 42.0859 39.8203 42.5469 40.5312C43.0156 41.2344 43.7227 41.5859 44.668 41.5859ZM58.9414 33.6406C58.168 33.6406 57.5664 33.8828 57.1367 34.3672C56.7148 34.8516 56.4492 35.5078 56.3398 36.3359H61.5312C61.4766 35.4531 61.207 34.7852 60.7227 34.332C60.2461 33.8711 59.6523 33.6406 58.9414 33.6406ZM58.9414 30.8867C60.0039 30.8867 60.9609 31.0859 61.8125 31.4844C62.6641 31.8828 63.3672 32.5117 63.9219 33.3711C64.4219 34.1289 64.7461 35.0078 64.8945 36.0078C64.9805 36.5938 65.0156 37.4375 65 38.5391H56.2578C56.3047 39.8203 56.707 40.7188 57.4648 41.2344C57.9258 41.5547 58.4805 41.7148 59.1289 41.7148C59.8164 41.7148 60.375 41.5195 60.8047 41.1289C61.0391 40.918 61.2461 40.625 61.4258 40.25H64.8359C64.75 41.0078 64.3555 41.7773 63.6523 42.5586C62.5586 43.8008 61.0273 44.4219 59.0586 44.4219C57.4336 44.4219 56 43.8984 54.7578 42.8516C53.5156 41.8047 52.8945 40.1016 52.8945 37.7422C52.8945 35.5312 53.4531 33.8359 54.5703 32.6562C55.6953 31.4766 57.1523 30.8867 58.9414 30.8867ZM74.3398 30.9219C75.6602 30.9219 76.7383 31.2695 77.5742 31.9648C78.418 32.6523 78.8398 33.7969 78.8398 35.3984V44H75.418V36.2305C75.418 35.5586 75.3281 35.043 75.1484 34.6836C74.8203 34.0273 74.1953 33.6992 73.2734 33.6992C72.1406 33.6992 71.3633 34.1797 70.9414 35.1406C70.7227 35.6484 70.6133 36.2969 70.6133 37.0859V44H67.2852V31.25H70.5078V33.1133C70.9375 32.457 71.3438 31.9844 71.7266 31.6953C72.4141 31.1797 73.2852 30.9219 74.3398 30.9219ZM80.6211 33.7227V31.3438H82.4023V27.7812H85.707V31.3438H87.7812V33.7227H85.707V40.4727C85.707 40.9961 85.7734 41.3242 85.9062 41.457C86.0391 41.582 86.4453 41.6445 87.125 41.6445C87.2266 41.6445 87.332 41.6445 87.4414 41.6445C87.5586 41.6367 87.6719 41.6289 87.7812 41.6211V44.1172L86.1992 44.1758C84.6211 44.2305 83.543 43.957 82.9648 43.3555C82.5898 42.9727 82.4023 42.3828 82.4023 41.5859V33.7227H80.6211ZM106.602 32.2227C106.602 31.3242 106.363 30.6836 105.887 30.3008C105.418 29.918 104.758 29.7266 103.906 29.7266H100.543V34.8125H103.906C104.758 34.8125 105.418 34.6055 105.887 34.1914C106.363 33.7773 106.602 33.1211 106.602 32.2227ZM110.176 32.1992C110.176 34.2383 109.66 35.6797 108.629 36.5234C107.598 37.3672 106.125 37.7891 104.211 37.7891H100.543V44H96.957V26.7266H104.48C106.215 26.7266 107.598 27.1719 108.629 28.0625C109.66 28.9531 110.176 30.332 110.176 32.1992ZM115.941 31.2266V38.9258C115.941 39.6523 116.027 40.1992 116.199 40.5664C116.504 41.2148 117.102 41.5391 117.992 41.5391C119.133 41.5391 119.914 41.0781 120.336 40.1562C120.555 39.6562 120.664 38.9961 120.664 38.1758V31.2266H124.051V44H120.805V42.1953C120.773 42.2344 120.695 42.3516 120.57 42.5469C120.445 42.7422 120.297 42.9141 120.125 43.0625C119.602 43.5312 119.094 43.8516 118.602 44.0234C118.117 44.1953 117.547 44.2812 116.891 44.2812C115 44.2812 113.727 43.6016 113.07 42.2422C112.703 41.4922 112.52 40.3867 112.52 38.9258V31.2266H115.941ZM134.188 30.9453C135.867 30.9453 137.18 31.5508 138.125 32.7617C139.078 33.9727 139.555 35.5352 139.555 37.4492C139.555 39.4336 139.086 41.0781 138.148 42.3828C137.211 43.6875 135.902 44.3398 134.223 44.3398C133.168 44.3398 132.32 44.1289 131.68 43.707C131.297 43.457 130.883 43.0195 130.438 42.3945V44H127.168V26.75H130.496V32.8906C130.918 32.2969 131.383 31.8438 131.891 31.5312C132.492 31.1406 133.258 30.9453 134.188 30.9453ZM133.332 41.5859C134.191 41.5859 134.859 41.2383 135.336 40.543C135.812 39.8477 136.051 38.9336 136.051 37.8008C136.051 36.8945 135.934 36.1445 135.699 35.5508C135.254 34.4258 134.434 33.8633 133.238 33.8633C132.027 33.8633 131.195 34.4141 130.742 35.5156C130.508 36.1016 130.391 36.8594 130.391 37.7891C130.391 38.8828 130.633 39.7891 131.117 40.5078C131.602 41.2266 132.34 41.5859 133.332 41.5859ZM145.367 44H142.027V26.7266H145.367V44ZM152.07 29.7031H148.684V26.6211H152.07V29.7031ZM148.684 31.2266H152.07V44H148.684V31.2266ZM162.945 35.8086C162.883 35.332 162.723 34.9023 162.465 34.5195C162.09 34.0039 161.508 33.7461 160.719 33.7461C159.594 33.7461 158.824 34.3047 158.41 35.4219C158.191 36.0156 158.082 36.8047 158.082 37.7891C158.082 38.7266 158.191 39.4805 158.41 40.0508C158.809 41.1133 159.559 41.6445 160.66 41.6445C161.441 41.6445 161.996 41.4336 162.324 41.0117C162.652 40.5898 162.852 40.043 162.922 39.3711H166.332C166.254 40.3867 165.887 41.3477 165.23 42.2539C164.184 43.7148 162.633 44.4453 160.578 44.4453C158.523 44.4453 157.012 43.8359 156.043 42.6172C155.074 41.3984 154.59 39.8164 154.59 37.8711C154.59 35.6758 155.125 33.9688 156.195 32.75C157.266 31.5312 158.742 30.9219 160.625 30.9219C162.227 30.9219 163.535 31.2812 164.551 32C165.574 32.7188 166.18 33.9883 166.367 35.8086H162.945ZM175.719 37.7891C175.508 37.9219 175.293 38.0312 175.074 38.1172C174.863 38.1953 174.57 38.2695 174.195 38.3398L173.445 38.4805C172.742 38.6055 172.238 38.7578 171.934 38.9375C171.418 39.2422 171.16 39.7148 171.16 40.3555C171.16 40.9258 171.316 41.3398 171.629 41.5977C171.949 41.8477 172.336 41.9727 172.789 41.9727C173.508 41.9727 174.168 41.7617 174.77 41.3398C175.379 40.918 175.695 40.1484 175.719 39.0312V37.7891ZM173.691 36.2305C174.309 36.1523 174.75 36.0547 175.016 35.9375C175.492 35.7344 175.73 35.418 175.73 34.9883C175.73 34.4648 175.547 34.1055 175.18 33.9102C174.82 33.707 174.289 33.6055 173.586 33.6055C172.797 33.6055 172.238 33.8008 171.91 34.1914C171.676 34.4805 171.52 34.8711 171.441 35.3633H168.219C168.289 34.2461 168.602 33.3281 169.156 32.6094C170.039 31.4844 171.555 30.9219 173.703 30.9219C175.102 30.9219 176.344 31.1992 177.43 31.7539C178.516 32.3086 179.059 33.3555 179.059 34.8945V40.7539C179.059 41.1602 179.066 41.6523 179.082 42.2305C179.105 42.668 179.172 42.9648 179.281 43.1211C179.391 43.2773 179.555 43.4062 179.773 43.5078V44H176.141C176.039 43.7422 175.969 43.5 175.93 43.2734C175.891 43.0469 175.859 42.7891 175.836 42.5C175.375 43 174.844 43.4258 174.242 43.7773C173.523 44.1914 172.711 44.3984 171.805 44.3984C170.648 44.3984 169.691 44.0703 168.934 43.4141C168.184 42.75 167.809 41.8125 167.809 40.6016C167.809 39.0312 168.414 37.8945 169.625 37.1914C170.289 36.8086 171.266 36.5352 172.555 36.3711L173.691 36.2305ZM180.723 33.7227V31.3438H182.504V27.7812H185.809V31.3438H187.883V33.7227H185.809V40.4727C185.809 40.9961 185.875 41.3242 186.008 41.457C186.141 41.582 186.547 41.6445 187.227 41.6445C187.328 41.6445 187.434 41.6445 187.543 41.6445C187.66 41.6367 187.773 41.6289 187.883 41.6211V44.1172L186.301 44.1758C184.723 44.2305 183.645 43.957 183.066 43.3555C182.691 42.9727 182.504 42.3828 182.504 41.5859V33.7227H180.723ZM193.461 29.7031H190.074V26.6211H193.461V29.7031ZM190.074 31.2266H193.461V44H190.074V31.2266ZM202.438 41.6445C203.414 41.6445 204.164 41.2969 204.688 40.6016C205.211 39.9062 205.473 38.918 205.473 37.6367C205.473 36.3555 205.211 35.3711 204.688 34.6836C204.164 33.9883 203.414 33.6406 202.438 33.6406C201.461 33.6406 200.707 33.9883 200.176 34.6836C199.652 35.3711 199.391 36.3555 199.391 37.6367C199.391 38.918 199.652 39.9062 200.176 40.6016C200.707 41.2969 201.461 41.6445 202.438 41.6445ZM208.977 37.6367C208.977 39.5117 208.438 41.1172 207.359 42.4531C206.281 43.7812 204.645 44.4453 202.449 44.4453C200.254 44.4453 198.617 43.7812 197.539 42.4531C196.461 41.1172 195.922 39.5117 195.922 37.6367C195.922 35.793 196.461 34.1953 197.539 32.8438C198.617 31.4922 200.254 30.8164 202.449 30.8164C204.645 30.8164 206.281 31.4922 207.359 32.8438C208.438 34.1953 208.977 35.793 208.977 37.6367ZM218.457 30.9219C219.777 30.9219 220.855 31.2695 221.691 31.9648C222.535 32.6523 222.957 33.7969 222.957 35.3984V44H219.535V36.2305C219.535 35.5586 219.445 35.043 219.266 34.6836C218.938 34.0273 218.312 33.6992 217.391 33.6992C216.258 33.6992 215.48 34.1797 215.059 35.1406C214.84 35.6484 214.73 36.2969 214.73 37.0859V44H211.402V31.25H214.625V33.1133C215.055 32.457 215.461 31.9844 215.844 31.6953C216.531 31.1797 217.402 30.9219 218.457 30.9219ZM228.652 39.9219C228.723 40.5156 228.875 40.9375 229.109 41.1875C229.523 41.6328 230.289 41.8555 231.406 41.8555C232.062 41.8555 232.582 41.7578 232.965 41.5625C233.355 41.3672 233.551 41.0742 233.551 40.6836C233.551 40.3086 233.395 40.0234 233.082 39.8281C232.77 39.6328 231.609 39.2969 229.602 38.8203C228.156 38.4609 227.137 38.0117 226.543 37.4727C225.949 36.9414 225.652 36.1758 225.652 35.1758C225.652 33.9961 226.113 32.9844 227.035 32.1406C227.965 31.2891 229.27 30.8633 230.949 30.8633C232.543 30.8633 233.84 31.1836 234.84 31.8242C235.848 32.457 236.426 33.5547 236.574 35.1172H233.234C233.188 34.6875 233.066 34.3477 232.871 34.0977C232.504 33.6445 231.879 33.418 230.996 33.418C230.27 33.418 229.75 33.5312 229.438 33.7578C229.133 33.9844 228.98 34.25 228.98 34.5547C228.98 34.9375 229.145 35.2148 229.473 35.3867C229.801 35.5664 230.961 35.875 232.953 36.3125C234.281 36.625 235.277 37.0977 235.941 37.7305C236.598 38.3711 236.926 39.1719 236.926 40.1328C236.926 41.3984 236.453 42.4336 235.508 43.2383C234.57 44.0352 233.117 44.4336 231.148 44.4336C229.141 44.4336 227.656 44.0117 226.695 43.168C225.742 42.3164 225.266 41.2344 225.266 39.9219H228.652Z" fill="#2A2A2A"/>
</svg>
